# xmcd
#
# Track frame offsets:
#	150
#	20404
#	40266
#	65114
#	89648
#	115605
#	138965
#	161494
#	183160
#	204434
#
# Disc length: 3089 seconds
#
# Revision: 8
# Processed by: cddbd v1.5.2PL0 Copyright (c) Steve Scherf et al.
# Submitted via: EasyCDDAExtractor 11.6.0.1
#
DISCID=830c0f0a
DTITLE=浜田省吾 - Sand Castle
DYEAR=1983
DGENRE=Blues
TTITLE0=君に会うまでは
TTITLE1=君の微笑
TTITLE2=散歩道
TTITLE3=いつわりの日々
TTITLE4=愛という名のもとに
TTITLE5=朝のシルエット
TTITLE6=丘の上の愛
TTITLE7=片想い
TTITLE8=陽のあたる場所
TTITLE9=愛しい人へ
EXTD=YEAR: 1983
EXTT0=
EXTT1=
EXTT2=
EXTT3=
EXTT4=
EXTT5=
EXTT6=
EXTT7=
EXTT8=
EXTT9=
PLAYORDER=
